<svg xmlns="http://www.w3.org/2000/svg" viewBox="0 0 500 500"><defs><style>.cls-1{fill:#df9f12;}.cls-1,.cls-2,.cls-3,.cls-5,.cls-6{stroke:#231815;stroke-width:12px;}.cls-1,.cls-2,.cls-3,.cls-6{stroke-miterlimit:10;}.cls-2,.cls-5{fill:#f6b35e;}.cls-3{fill:#fff;}.cls-4{fill:#231815;}.cls-5,.cls-6{stroke-linecap:round;}.cls-5{stroke-linejoin:round;}.cls-6,.cls-7{fill:none;}</style></defs><g id="图层_2" data-name="图层 2"><g id="图层_1-2" data-name="图层 1"><path class="cls-1" d="M157.36,157.05s26.22-76.28,62-114.41S274.16,4.5,293.23,18.8,339.71,42.64,354,48.6s-17.88,37.68-46.48,34.93,13.11,73.52,13.11,73.52S256.28,143.94,157.36,157.05Z"/><path class="cls-2" d="M56.06,213.07s19.06-36.95,101.3-56,163.28,0,163.28,0,87,11.92,102.49,28.6-3.57,41.72-71.51,60.79-213.33,0-213.33,0S54.86,250,56.06,213.07Z"/><path class="cls-3" d="M179.56,197.57a67.66,67.66,0,0,0-41.74,43.16c-14.06,43.84-37.67,124.34-35.14,163.1,3.57,54.82,16.68,71.51,41.71,50.05s21.45-3.35,23.83,9.05,9.54,21.94,29.8,17.17,19.35-1.19,31.13,7.15,21.31-4.76,24.88-7.15,21.46-10.72,32.18-2.38,26.22,7.15,37-4.77,14.3-21.45,31-10.72,27.41-14.3,27.41-23.84S383.8,368,351.62,246.44C328.18,157.88,230.75,179.37,179.56,197.57Z"/><path class="cls-4" d="M187,282.19s0,32.77,16.48,32.18,16.09-24.43,16.09-29-.59-30-16.29-31.39S187,282.19,187,282.19Z"/><path class="cls-4" d="M271.38,284s0,32.77,16.48,32.18,16.09-24.44,16.09-29-.59-30-16.29-31.39S271.38,284,271.38,284Z"/><line class="cls-5" x1="166.32" y1="449.33" x2="163.99" y2="395.22"/><line class="cls-5" x1="258.4" y1="477.84" x2="252.45" y2="456.67"/><line class="cls-5" x1="336.93" y1="458.82" x2="333.49" y2="434.42"/><line class="cls-6" x1="304.43" y1="82.63" x2="287.66" y2="72.64"/><rect class="cls-7" width="500" height="500"/></g></g></svg>