<svg version="1.1" id="Layer_1" xmlns="http://www.w3.org/2000/svg" xmlns:xlink="http://www.w3.org/1999/xlink" x="0px" y="0px"
	 width="100%" viewBox="0 0 720 1024" enable-background="new 0 0 720 1024" xml:space="preserve">
<path fill="#000000" opacity="1.000000" stroke="none" 
	d="
M421.160370,588.747925 
	C453.638977,609.368408 472.879395,638.157227 477.072571,676.279114 
	C478.068268,685.331116 477.414124,694.568787 477.448853,703.721375 
	C477.576569,737.379089 477.154572,771.035828 477.728485,804.695984 
	C478.069214,824.679504 478.459076,844.685486 477.340393,864.664856 
	C477.055084,869.760071 475.150513,874.424622 472.096863,878.504700 
	C467.800140,884.245361 461.181793,886.679016 454.352997,884.206421 
	C442.104340,879.771423 431.142456,882.444946 420.607178,889.057800 
	C418.352234,890.473145 416.071503,891.862915 413.716553,893.100647 
	C404.213684,898.095337 395.025360,896.211243 385.956665,891.745056 
	C381.175598,889.390381 376.403625,887.005310 371.533142,884.846985 
	C364.867035,881.893005 358.265228,882.202881 351.863495,885.792358 
	C349.685089,887.013794 347.522736,888.269714 345.297485,889.400513 
	C342.183563,890.982849 339.110138,892.705322 335.858154,893.945007 
	C320.377441,899.846497 309.472412,896.115295 300.895782,881.986877 
	C298.914398,878.722839 297.323547,875.216736 295.628937,871.784485 
	C290.943634,862.294983 285.659027,860.044556 275.786224,863.835632 
	C270.682068,865.795654 265.663239,865.943604 260.705811,863.979004 
	C252.171295,860.596680 248.282852,853.783752 247.674057,844.936951 
	C247.422882,841.287170 247.593033,837.607422 247.592941,833.941345 
	C247.591568,784.780334 247.741776,735.618835 247.551880,686.458557 
	C247.378632,641.606323 275.491241,599.429138 317.672272,581.853455 
	C352.938293,567.159058 387.543854,569.534790 421.160370,588.747925 
M422.195587,598.329468 
	C400.441742,584.304443 376.807098,578.262268 350.926056,581.088928 
	C320.446960,584.417908 296.049988,598.464478 277.339935,622.498657 
	C261.916382,642.311218 255.197052,665.114136 255.180130,690.024475 
	C255.146317,739.843628 255.171036,789.662781 255.177444,839.481934 
	C255.177673,841.313904 255.079239,843.165405 255.299149,844.974670 
	C256.544891,855.224121 263.946350,859.807617 273.428650,856.272827 
	C286.248962,851.493713 295.244812,854.964539 301.657684,867.178955 
	C304.055084,871.745361 306.080383,876.510132 309.162689,880.704895 
	C314.426117,887.867920 320.520050,890.062561 329.247437,887.922852 
	C335.991516,886.269348 341.772186,882.539795 347.748657,879.288696 
	C356.827789,874.349976 365.943359,873.270447 375.438110,877.949280 
	C380.664185,880.524658 385.980469,882.918335 391.187378,885.530762 
	C399.404083,889.653259 406.851105,888.820129 414.618042,883.689697 
	C427.093658,875.449036 440.417572,870.772278 455.686554,876.345947 
	C461.489685,878.464355 465.202301,876.123474 467.665741,870.469421 
	C469.282776,866.757935 469.887604,862.875427 469.884460,858.798950 
	C469.840759,801.648560 469.929321,744.498047 469.816986,687.347900 
	C469.794342,675.815369 467.833252,664.440063 464.315735,653.468262 
	C456.920471,630.401123 442.357208,612.637817 422.195587,598.329468 
z"/>
<path fill="#000000" opacity="1.000000" stroke="none" 
	d="
M302.437073,693.102051 
	C301.152496,682.477356 305.816406,674.325806 314.557373,671.313477 
	C323.015045,668.398743 332.385864,671.491882 336.913422,678.692871 
	C342.560059,687.673645 340.170624,698.532471 331.236877,704.490479 
	C322.594086,710.254395 311.308838,707.993164 305.369415,699.294189 
	C304.147644,697.504761 303.035126,695.652405 302.437073,693.102051 
z"/>
<path fill="#000000" opacity="1.000000" stroke="none" 
	d="
M389.427887,695.223633 
	C386.227142,683.711792 392.029968,672.955688 402.269470,670.750549 
	C414.216064,668.177856 424.061676,674.876892 425.876495,686.812866 
	C427.109436,694.921753 421.941589,703.257446 413.693085,706.464661 
	C405.809906,709.529846 396.316467,706.580078 391.665131,699.553894 
	C390.845062,698.315125 390.280884,696.906982 389.427887,695.223633 
z"/>
</svg>