<svg version="1.1" id="Layer_1" xmlns="http://www.w3.org/2000/svg" xmlns:xlink="http://www.w3.org/1999/xlink" x="0px" y="0px"
	 width="100%" viewBox="0 0 736 736" enable-background="new 0 0 736 736" xml:space="preserve">
<path fill="#000000" opacity="1.000000" stroke="none" 
	d="
M303.508179,419.923340 
	C303.126801,417.732788 302.742126,415.925598 302.740234,414.118042 
	C302.704681,380.292267 302.636322,346.466217 302.737396,312.640717 
	C302.833893,280.354797 323.775696,254.399612 355.293427,247.218460 
	C394.596100,238.263565 434.634583,269.220947 435.160339,309.540192 
	C435.618744,344.693115 435.257263,379.856628 435.281982,415.015442 
	C435.284485,418.584625 434.451050,421.610352 430.905762,423.272919 
	C427.068420,425.072510 424.553253,422.793182 422.145050,420.399048 
	C416.594055,414.880310 411.171356,409.231140 405.566864,403.768005 
	C400.763855,399.086182 398.552002,399.155762 393.815460,403.831482 
	C388.717285,408.864166 383.695587,413.974365 378.601410,419.011139 
	C371.709198,425.825684 366.212189,425.799591 359.254639,418.917816 
	C354.161713,413.880310 349.160431,408.749725 344.040863,403.739746 
	C339.305145,399.105408 336.884888,399.116425 332.259125,403.715271 
	C326.470917,409.469818 320.806549,415.350281 314.962769,421.047180 
	C310.732910,425.170715 307.875519,424.890106 303.508179,419.923340 
M339.656372,298.202209 
	C332.595032,300.882294 330.370056,303.899597 330.264374,311.175812 
	C330.194214,316.006500 330.220978,320.839172 330.254456,325.670654 
	C330.313202,334.153442 335.011841,339.516541 342.496948,339.699982 
	C349.827362,339.879578 355.405121,333.954895 355.550995,325.630768 
	C355.641296,320.475342 355.600006,315.311340 355.412048,310.158722 
	C355.122253,302.213959 348.594574,297.018768 339.656372,298.202209 
M400.500854,298.855103 
	C390.940216,296.098755 383.715851,300.114990 382.690430,309.502716 
	C382.011566,315.717712 382.109039,322.123688 382.760284,328.349915 
	C383.511902,335.535614 389.573334,340.197876 396.177917,339.688843 
	C403.015930,339.161835 407.625671,333.985596 407.740234,326.560303 
	C407.819672,321.415222 407.735840,316.267883 407.761780,311.121704 
	C407.788116,305.901886 405.931702,301.745667 400.500854,298.855103 
z"/>
<path fill="#000000" opacity="1.000000" stroke="none" 
	d="
M351.042023,455.724457 
	C364.832733,455.724854 378.130005,455.734406 391.427277,455.719299 
	C394.636505,455.715668 397.921448,455.573456 399.612305,459.082001 
	C401.332397,462.651154 398.586517,464.728149 396.581940,466.781250 
	C389.154114,474.388794 381.646820,481.921844 374.038361,489.348663 
	C370.034760,493.256683 367.862823,493.205383 363.865875,489.279846 
	C356.395569,481.943054 349.009796,474.519348 341.649658,467.071716 
	C339.458435,464.854492 336.670807,462.611176 338.330505,458.946930 
	C339.937439,455.399200 343.373444,455.691833 346.559418,455.720673 
	C347.889038,455.732697 349.218842,455.723907 351.042023,455.724457 
z"/>
</svg>