<svg xmlns="http://www.w3.org/2000/svg" viewBox="0 0 500 500"><defs><style>.cls-1{fill:#df9f12;}.cls-1,.cls-2,.cls-3,.cls-5,.cls-6{stroke:#231815;stroke-width:18px;}.cls-1,.cls-2,.cls-3,.cls-6{stroke-miterlimit:10;}.cls-2,.cls-5{fill:#f6b35e;}.cls-3{fill:#fff;}.cls-4{fill:#231815;}.cls-5,.cls-6{stroke-linecap:round;}.cls-5{stroke-linejoin:round;}.cls-6,.cls-7{fill:none;}</style></defs><g id="图层_2" data-name="图层 2"><g id="图层_1-2" data-name="图层 1"><path class="cls-1" d="M171.26,152.51s24.4-71,57.66-106.44,51-35.49,68.75-22.18,43.24,22.18,56.55,27.72S337.58,86.67,311,84.11s12.2,68.4,12.2,68.4S263.29,140.32,171.26,152.51Z"/><path class="cls-2" d="M77,204.63s17.74-34.38,94.25-52.12,151.91,0,151.91,0,80.94,11.09,95.36,26.61S415.2,217.93,352,235.67s-198.48,0-198.48,0S75.9,239,77,204.63Z"/><path class="cls-3" d="M191.92,190.21a63,63,0,0,0-38.84,40.15C140,271.15,118,346.05,120.39,382.11c3.32,51,15.52,66.53,38.8,46.57s20-3.12,22.18,8.42,8.87,20.41,27.72,16,18-1.11,29,6.65,19.83-4.43,23.15-6.65,20-10,29.94-2.22,24.4,6.66,34.38-4.43,13.3-20,28.83-10,25.5-13.31,25.5-22.18,2.09-65.49-27.85-178.59C330.19,153.29,239.54,173.28,191.92,190.21Z"/><path class="cls-4" d="M198.8,268.94s0,30.49,15.34,29.94,15-22.73,15-27S228.55,244,214,242.7,198.8,268.94,198.8,268.94Z"/><path class="cls-4" d="M277.34,270.6s0,30.49,15.34,29.94,15-22.73,15-27-.56-27.91-15.16-29.2S277.34,270.6,277.34,270.6Z"/><line class="cls-5" x1="179.6" y1="424.44" x2="177.43" y2="374.1"/><line class="cls-5" x1="265.27" y1="450.96" x2="259.73" y2="431.26"/><line class="cls-5" x1="338.33" y1="433.27" x2="335.13" y2="410.57"/><line class="cls-6" x1="308.09" y1="83.27" x2="292.49" y2="73.98"/><rect class="cls-7" width="500" height="500"/></g></g></svg>